# xmcd CD database file
# Copyright (C) 1993-1998 Ti Kan
#
# Track frame offsets:
# 150
# 17338
# 42743
# 56743
# 72388
# 92263
# 108488
# 142560
# 158125
# 182063
# 204878
#
# Disc length: 3215 seconds
# Revision: 0
# Processed by: cddbd v1.4b41PL1 Copyright (c) Steve Scherf et al.
# Submitted via: CDSpectrumPro v3.3.335
#
DISCID=880c8d0b
DTITLE=The Foxboro High School Jazz Ensemble - Intimacy of the Blues
DYEAR=1900
DGENRE=
TTITLE0=Sweet Georgia Upside Down
TTITLE1=Auld Lang Syne
TTITLE2=Undecided
TTITLE3=Ain't Misbehavin'
TTITLE4=On Purple Porpoise Parkway
TTITLE5=Samantha
TTITLE6=Cruisin' for a Bluesin'
TTITLE7=Hanky Panky
TTITLE8=I Remeber Clifford
TTITLE9=Tickletoe
TTITLE10=Intimacy of the Blues
EXTD=
EXTT0=
EXTT1=
EXTT2=
EXTT3=
EXTT4=
EXTT5=
EXTT6=
EXTT7=
EXTT8=
EXTT9=
EXTT10=
PLAYORDER=
